# xmcd
#
# Track frame offsets: 
#        150
#        19650
#        43524
#        52527
#        69269
#        89400
#        106996
#        125885
#        151633
#        164002
#        183226
#        195798
#
# Disc length: 2749 seconds
#
# Revision: 0
# Processed by: cddbd v1.5.2PL0 Copyright (c) Steve Scherf et al.
# Submitted via: ExactAudioCopy v1.0b4
#
DISCID=8a0abb0c
DTITLE=Peder af Ugglas - Blue Departure
DYEAR=2015
DGENRE=Blues
TTITLE0=Blue Departure
TTITLE1=Passing Places
TTITLE2=New Face
TTITLE3=Reminder
TTITLE4=Nordic Investigation
TTITLE5=Awakening
TTITLE6=Second Departure
TTITLE7=The Missing Piece
TTITLE8=Self Confident
TTITLE9=Peace of Mind
TTITLE10=Confusion
TTITLE11=Still Blue
EXTD=
EXTT0=
EXTT1=
EXTT2=
EXTT3=
EXTT4=
EXTT5=
EXTT6=
EXTT7=
EXTT8=
EXTT9=
EXTT10=
EXTT11=
PLAYORDER=
